<svg xmlns="http://www.w3.org/2000/svg" viewBox="0 0 30.87 18.22"><title>Asset 1</title><g id="Layer_2" data-name="Layer 2"><g id="Menu_4" data-name="Menu 4"><path d="M3.12,18.18a2.8,2.8,0,0,0,2.79-2.07A3.93,3.93,0,0,0,9.65,18.2a3.76,3.76,0,0,0,2.87-2.48,1.3,1.3,0,0,0,1.55,0,3.47,3.47,0,0,0,4,1.49,3.32,3.32,0,0,0,5.13-.7,6.47,6.47,0,0,0,2.45.21,5.45,5.45,0,0,0,5.18-6.24,5.43,5.43,0,0,0-6.09-5.1,3.47,3.47,0,0,0-6.19-.6,3,3,0,0,0-2.24.1A3.35,3.35,0,1,0,10,3.58,3.79,3.79,0,0,0,10,4,2.85,2.85,0,0,0,8,5,3.68,3.68,0,0,0,5,4.1,3.57,3.57,0,0,0,2,6.56c0,.08-.05.17-.08.25l-1,4.14L.11,14.37a3.07,3.07,0,0,0,.4,2.52,3,3,0,0,0,2.17,1.27l.45,0" style="fill:#fff"/><path d="M6.29,11.6a.2.2,0,0,0,.17-.26L6,9.86c-.14-.44-.47-.4-.55,0l-.29,1.45a.26.26,0,0,0,.27.31Zm-4.6,3.16L3.56,7.2A1.48,1.48,0,0,1,4.9,6.08l1-.06A1.53,1.53,0,0,1,7.42,7l3,7.57a1.24,1.24,0,0,1-1,1.59,1.42,1.42,0,0,1-1.56-.5L7.1,13.83a.4.4,0,0,0-.41-.27l-1.58.1A.45.45,0,0,0,4.7,14l-.33,1.51a1.23,1.23,0,0,1-1.5,1,1.33,1.33,0,0,1-1.18-1.77" style="fill:#00a3df"/><path d="M11.64,10.53a1,1,0,0,1-.54-.13,1.27,1.27,0,0,1-.57-1.06,1.24,1.24,0,0,1,.37-1.11A1,1,0,0,1,11.42,8a.91.91,0,0,1,.52.12,1.09,1.09,0,0,1,.53.77c0,.1,0,.19.05.29a1.27,1.27,0,0,1-.39,1.12.92.92,0,0,1-.49.23m2.23-8.72-1.2.11a1.06,1.06,0,0,0-.94,1.16L12,5.7a3.22,3.22,0,0,0-1.21-.14,3.53,3.53,0,0,0-1.71.65A3.54,3.54,0,0,0,7.78,9.53,3.45,3.45,0,0,0,11.43,13a3.12,3.12,0,0,0,1.26-.43.77.77,0,0,0,.68.32l1.45-.13a.83.83,0,0,0,.74-.91L14.7,2.51a.77.77,0,0,0-.83-.71" style="fill:#ffd100"/><path d="M18.13,13.1a1,1,0,0,1-.49-.26,1.26,1.26,0,0,1-.3-1.16,1.24,1.24,0,0,1,.62-1,1,1,0,0,1,.54-.09.94.94,0,0,1,.48.24,1.1,1.1,0,0,1,.33.87,1.75,1.75,0,0,1,0,.29,1.27,1.27,0,0,1-.64,1,1,1,0,0,1-.53.1m4.23-7.95L21.17,5a1.05,1.05,0,0,0-1.19.9L19.6,8.48a3.22,3.22,0,0,0-1.14-.42,3.34,3.34,0,0,0-3.84,3.15,3.59,3.59,0,0,0,1.06,3.48,3.63,3.63,0,0,0,1.66.8,3.1,3.1,0,0,0,1.33-.12.76.76,0,0,0,.59.47l1.44.22a.83.83,0,0,0,.94-.71L23,6a.77.77,0,0,0-.64-.88" style="fill:#f57f41"/><path d="M24.69,12.16a1,1,0,0,0,.55.13,1,1,0,0,0,.5-.23,1.28,1.28,0,0,0,.39-1.13,2,2,0,0,0-.06-.29,1.12,1.12,0,0,0-.54-.77A1,1,0,0,0,25,9.74a1,1,0,0,0-.52.22,1.25,1.25,0,0,0-.37,1.13,1.27,1.27,0,0,0,.59,1.07m-3.43-.79a3.63,3.63,0,0,1,2.88-4.06,5.31,5.31,0,0,1,.64-.1A3.66,3.66,0,0,1,29,10.62a3.67,3.67,0,0,1-3.48,4.19,3.67,3.67,0,0,1-4.23-3.45" style="fill:#e31254"/></g></g></svg>