<?xml version="1.0" encoding="utf-8"?>
<!-- Generator: Adobe Illustrator 15.0.0, SVG Export Plug-In  -->
<!DOCTYPE svg PUBLIC "-//W3C//DTD SVG 1.1//EN" "http://www.w3.org/Graphics/SVG/1.1/DTD/svg11.dtd" [
	<!ENTITY ns_flows "http://ns.adobe.com/Flows/1.0/">
]>
<svg version="1.1"
	 xmlns="http://www.w3.org/2000/svg" xmlns:xlink="http://www.w3.org/1999/xlink" xmlns:a="http://ns.adobe.com/AdobeSVGViewerExtensions/3.0/"
	 x="0px" y="0px" width="132px" height="78px" viewBox="-1.418 -0.567 132 78"
	 overflow="visible" enable-background="new -1.418 -0.567 132 78" xml:space="preserve">
<defs>
</defs>
<path fill="#FFFFFF" d="M128.838,43.598c-1.319-13.653-11.715-22.378-25.448-21.314c-1.584-4.665-5.912-8.373-11.444-9.2
	c-6.077-0.908-11.78,1.935-14.413,6.685c-1.304-0.458-2.705-0.709-4.167-0.709c-1.85,0-3.606,0.402-5.188,1.119
	c1.117-2.185,1.668-4.689,1.473-7.309C69.08,5.207,62.348-0.537,54.616,0.04c-7.731,0.575-13.535,7.254-12.964,14.917
	c0.048,0.642,0.143,1.271,0.274,1.884c-3.333,0.175-6.304,1.714-8.369,4.065c-3.129-2.904-7.691-4.441-12.508-3.789
	c-6.19,0.837-11.011,5.048-12.519,10.288c-0.117,0.346-0.222,0.697-0.312,1.058L3.961,45.738l-3.52,14.284
	c-0.951,3.818-0.352,7.556,1.685,10.526c2.012,2.934,5.226,4.812,9.051,5.288c0.634,0.08,1.257,0.118,1.866,0.118
	c5.628,0,10.109-3.308,11.658-8.66c3.715,5.976,9.577,9.536,15.627,8.717c5.377-0.727,9.694-4.749,11.988-10.373
	c0.927,0.637,2,1.007,3.149,1.007c1.228,0,2.37-0.423,3.339-1.142c2.551,4.137,7.121,6.895,12.34,6.895
	c1.536,0,3.016-0.242,4.404-0.685c3.31,2.805,7.31,4.232,11.399,3.68c4.104-0.555,7.59-3.011,10.036-6.614
	c3.105,0.906,6.546,1.227,10.231,0.869c4.063-0.392,7.682-1.542,10.748-3.311c0.795,0.477,1.714,0.769,2.707,0.77
	c2.942,0.002,5.324-2.373,5.325-5.311c0.001-0.895-0.24-1.725-0.63-2.464C128.136,55.031,129.422,49.641,128.838,43.598"/>
<path fill="#00A3DF" d="M26.28,48.458c0.538-0.036,0.896-0.571,0.723-1.08l-2.097-6.196c-0.609-1.829-1.964-1.69-2.282,0.149
	l-1.2,6.078c-0.139,0.699,0.424,1.34,1.136,1.293L26.28,48.458z M7.079,61.668l7.779-31.569c0.654-2.618,2.925-4.516,5.617-4.692
	l4.125-0.271c2.781-0.183,5.361,1.454,6.38,4.049l12.724,31.623c1.205,3.064-1.21,5.92-4.208,6.633
	c-2.999,0.712-6.033-0.638-6.522-2.09l-3.335-7.559c-0.244-0.725-0.946-1.195-1.709-1.144l-6.572,0.436
	c-0.84,0.056-1.537,0.668-1.698,1.494l-1.399,6.318c-0.515,2.374-2.295,4.646-6.238,4.154C8.079,68.559,6.128,65.48,7.079,61.668"/>
<path fill="#0081C8" d="M13.043,69.761c-0.355,0-0.722-0.023-1.1-0.071c-2.071-0.258-3.699-1.173-4.709-2.645
	c-1.022-1.491-1.299-3.455-0.781-5.532l7.78-31.568c0.724-2.904,3.215-4.985,6.2-5.182l4.125-0.271
	c3.08-0.199,5.896,1.589,7.023,4.455l12.722,31.617c0.553,1.408,0.476,2.855-0.221,4.19c-0.844,1.614-2.502,2.852-4.436,3.312
	c-3.3,0.782-6.684-0.732-7.283-2.512l-3.313-7.503c-0.172-0.502-0.607-0.793-1.076-0.761l-6.573,0.436
	c-0.548,0.036-1.003,0.437-1.108,0.975l-1.402,6.333C18.237,68.049,16.085,69.761,13.043,69.761 M25.027,25.766
	c-0.128,0-0.256,0.004-0.384,0.014l-4.125,0.271c-2.423,0.159-4.446,1.849-5.033,4.205l-7.78,31.569
	c-0.428,1.715-0.217,3.309,0.593,4.49c0.795,1.16,2.111,1.885,3.805,2.097c4.01,0.5,5.186-2.074,5.528-3.653l1.399-6.32
	c0.214-1.096,1.155-1.924,2.286-1.998l6.572-0.436c1.055-0.074,2.025,0.581,2.363,1.582l3.313,7.503
	c0.354,1.042,2.953,2.394,5.784,1.723c1.552-0.368,2.928-1.386,3.59-2.654c0.52-0.993,0.577-2.07,0.166-3.115L30.382,29.424
	C29.507,27.197,27.386,25.766,25.027,25.766 M22.486,49.35c-0.498,0-0.966-0.211-1.297-0.589c-0.358-0.407-0.503-0.946-0.398-1.477
	l1.2-6.078c0.202-1.166,0.808-1.908,1.619-1.969c0.805-0.061,1.525,0.589,1.908,1.739l2.096,6.194
	c0.147,0.434,0.085,0.902-0.169,1.283c-0.255,0.381-0.664,0.617-1.122,0.647l-3.72,0.244C22.564,49.349,22.525,49.35,22.486,49.35
	 M23.711,40.522h-0.004c-0.075,0.007-0.331,0.243-0.448,0.919l-1.202,6.093c-0.037,0.185,0.048,0.314,0.101,0.376
	c0.054,0.061,0.174,0.159,0.36,0.148l3.72-0.244c0.075-0.005,0.116-0.051,0.134-0.077c0.022-0.033,0.043-0.085,0.02-0.152
	l-2.096-6.197C24.073,40.721,23.794,40.522,23.711,40.522"/>
<path fill="#FFD100" d="M48.639,43.989c-0.747,0.066-1.462-0.164-2.251-0.563c-1.216-0.654-2.16-2.155-2.36-4.426
	c-0.19-2.153,0.477-3.797,1.56-4.654c0.706-0.531,1.375-0.825,2.122-0.892c0.69-0.061,1.458,0.107,2.189,0.512
	c1.034,0.554,1.821,1.6,2.194,3.209c0.094,0.401,0.187,0.805,0.223,1.212c0.185,2.095-0.534,3.802-1.617,4.66
	C50.051,43.572,49.329,43.929,48.639,43.989 M57.959,7.558L52.939,8c-2.4,0.212-4.167,2.378-3.942,4.831l1.048,10.996
	c-1.718-0.519-3.442-0.71-5.045-0.568c-2.502,0.22-4.75,1.114-7.13,2.715c-3.65,2.583-5.933,7.478-5.371,13.863
	c0.594,6.729,3.698,11.15,7.745,13.055c2.623,1.16,5.008,1.818,7.509,1.598c1.739-0.153,3.545-0.806,5.264-1.796
	c0.642,0.881,1.698,1.416,2.844,1.314l6.038-0.531c1.889-0.167,3.28-1.87,3.104-3.8l-3.6-39.174
	C61.243,8.722,59.702,7.403,57.959,7.558"/>
<path fill="#E17526" d="M46.79,55.177c-2.047,0-4.193-0.539-6.807-1.696c-4.598-2.162-7.555-7.112-8.126-13.587
	c-0.55-6.255,1.506-11.521,5.641-14.446c2.544-1.71,4.906-2.607,7.446-2.831c1.394-0.123,2.889-0.002,4.372,0.347l-0.961-10.07
	c-0.126-1.38,0.288-2.718,1.166-3.77c0.854-1.023,2.048-1.65,3.362-1.767l5.02-0.441c2.089-0.183,3.95,1.397,4.143,3.529l3.6,39.173
	c0.102,1.121-0.236,2.21-0.95,3.064c-0.696,0.832-1.669,1.342-2.739,1.438l-6.039,0.532c-1.149,0.101-2.251-0.318-3.049-1.137
	c-1.717,0.918-3.456,1.476-5.058,1.617C47.472,55.162,47.132,55.177,46.79,55.177 M46.028,23.859c-0.329,0-0.653,0.014-0.971,0.042
	c-2.314,0.203-4.483,1.032-6.826,2.607c-3.739,2.646-5.598,7.486-5.089,13.271c0.53,6.006,3.219,10.57,7.377,12.526
	c2.828,1.252,5.048,1.729,7.178,1.54c1.564-0.138,3.293-0.729,4.999-1.712l0.502-0.289l0.341,0.469
	c0.536,0.736,1.383,1.131,2.266,1.052l6.038-0.532c0.727-0.064,1.388-0.412,1.863-0.979c0.493-0.591,0.726-1.344,0.656-2.119
	l-3.6-39.175c-0.13-1.424-1.359-2.485-2.746-2.36l-5.019,0.442c-0.971,0.085-1.853,0.549-2.486,1.308
	c-0.656,0.786-0.966,1.789-0.871,2.822l1.139,11.949l-0.92-0.276C48.578,24.058,47.271,23.859,46.028,23.859 M48.381,44.646
	c-0.697,0-1.416-0.204-2.285-0.644c-1.523-0.821-2.506-2.62-2.711-4.945c-0.198-2.251,0.458-4.151,1.802-5.217
	c0.836-0.629,1.616-0.953,2.467-1.028c0.845-0.072,1.726,0.13,2.557,0.59c1.244,0.667,2.114,1.923,2.51,3.627
	c0.097,0.416,0.197,0.845,0.237,1.302c0.191,2.161-0.521,4.162-1.859,5.222c-0.783,0.635-1.616,1.011-2.403,1.081h-0.001
	C48.591,44.642,48.486,44.646,48.381,44.646 M47.988,34.088c-0.075,0-0.148,0.003-0.221,0.01c-0.609,0.054-1.161,0.288-1.792,0.764
	c-0.97,0.769-1.462,2.298-1.304,4.082c0.166,1.885,0.903,3.312,2.022,3.916c0.769,0.388,1.339,0.538,1.889,0.488
	c0.523-0.047,1.13-0.332,1.71-0.803c1.007-0.798,1.534-2.368,1.381-4.102c-0.032-0.366-0.122-0.75-0.208-1.122
	c-0.314-1.353-0.944-2.29-1.871-2.787C49.066,34.242,48.506,34.088,47.988,34.088"/>
<path fill="#F57F41" d="M75.733,54.707c-0.742-0.113-1.383-0.505-2.056-1.08c-1.025-0.924-1.588-2.604-1.245-4.858
	c0.325-2.138,1.36-3.576,2.614-4.153c0.813-0.35,1.533-0.478,2.274-0.364c0.685,0.104,1.392,0.447,2.007,1.013
	c0.872,0.783,1.391,1.985,1.372,3.638c-0.004,0.413-0.009,0.826-0.069,1.23c-0.316,2.08-1.418,3.567-2.672,4.146
	C77.203,54.635,76.417,54.812,75.733,54.707 M93.402,21.511l-4.982-0.757c-2.381-0.36-4.61,1.325-4.972,3.764l-1.582,10.931
	c-1.547-0.91-3.176-1.503-4.767-1.745c-2.483-0.377-4.879-0.04-7.569,0.953c-4.158,1.646-7.534,5.863-8.497,12.2
	c-1.014,6.679,0.957,11.709,4.438,14.516c2.274,1.747,4.437,2.95,6.92,3.328c1.726,0.262,3.634,0.054,5.539-0.501
	c0.413,1.008,1.315,1.777,2.452,1.95l5.992,0.91c1.875,0.284,3.629-1.041,3.914-2.958l5.765-38.915
	C96.317,23.418,95.131,21.774,93.402,21.511"/>
<path fill="#F05123" d="M86.886,67.742c-0.201,0-0.404-0.015-0.607-0.045l-5.994-0.911c-1.139-0.173-2.111-0.841-2.694-1.824
	c-1.903,0.493-3.681,0.622-5.297,0.376c-2.343-0.356-4.569-1.422-7.215-3.455c-3.956-3.188-5.659-8.697-4.683-15.123
	c0.943-6.208,4.186-10.838,8.897-12.703c2.875-1.062,5.384-1.374,7.902-0.991c1.385,0.211,2.809,0.68,4.166,1.371l1.449-10.012
	c0.202-1.371,0.92-2.573,2.022-3.388c1.071-0.792,2.377-1.117,3.685-0.921l4.982,0.757c2.075,0.315,3.507,2.293,3.191,4.408
	l-5.764,38.914c-0.166,1.113-0.751,2.09-1.646,2.752C88.575,67.47,87.742,67.742,86.886,67.742 M78.305,63.419l0.222,0.535
	c0.346,0.842,1.076,1.425,1.953,1.558l5.992,0.91c0.717,0.107,1.446-0.072,2.042-0.512c0.618-0.457,1.022-1.133,1.138-1.903
	l5.764-38.914c0.211-1.415-0.736-2.735-2.11-2.944l-4.981-0.756c-0.963-0.147-1.932,0.095-2.725,0.682
	c-0.824,0.609-1.361,1.511-1.514,2.537l-1.719,11.88l-0.828-0.486c-1.459-0.859-3.028-1.435-4.537-1.663
	c-2.295-0.351-4.6-0.058-7.249,0.919c-4.258,1.687-7.209,5.951-8.082,11.692c-0.905,5.96,0.628,11.032,4.206,13.916
	c2.452,1.885,4.494,2.871,6.611,3.192c1.551,0.237,3.371,0.069,5.262-0.481L78.305,63.419z M76.14,55.382
	c-0.173,0-0.341-0.013-0.505-0.037c-0.792-0.12-1.524-0.499-2.377-1.229c-1.285-1.155-1.813-3.137-1.464-5.444
	c0.34-2.234,1.427-3.927,2.982-4.643c0.963-0.414,1.797-0.544,2.641-0.417c0.839,0.128,1.648,0.535,2.347,1.179
	c1.05,0.94,1.599,2.367,1.58,4.117c-0.003,0.403-0.007,0.861-0.077,1.32c-0.326,2.145-1.49,3.921-3.039,4.634
	C77.506,55.205,76.793,55.382,76.14,55.382 M76.794,44.855c-0.463,0-0.939,0.114-1.492,0.352c-1.123,0.518-1.964,1.888-2.232,3.658
	c-0.285,1.871,0.095,3.433,1.041,4.282c0.653,0.56,1.172,0.839,1.719,0.921v0.001c0.517,0.078,1.176-0.055,1.852-0.375
	c1.166-0.537,2.051-1.938,2.311-3.659c0.057-0.369,0.06-0.761,0.063-1.14c0.015-1.389-0.376-2.448-1.159-3.151
	c-0.507-0.467-1.098-0.769-1.672-0.856C77.081,44.866,76.939,44.855,76.794,44.855"/>
<path fill="#E31254" d="M103.123,50.805c0.811,0.397,1.545,0.623,2.311,0.549c0.706-0.067,1.443-0.436,2.104-0.976
	c1.103-0.878,1.827-2.612,1.622-4.731c-0.039-0.411-0.139-0.818-0.237-1.225c-0.395-1.626-1.209-2.676-2.272-3.227
	c-0.752-0.402-1.539-0.564-2.246-0.496c-0.766,0.073-1.449,0.378-2.17,0.923c-1.103,0.879-1.773,2.548-1.562,4.726
	C100.892,48.644,101.871,50.154,103.123,50.805 M88.781,47.497c-0.819-8.478,4.063-15.128,12.025-16.967
	c0.932-0.209,1.809-0.354,2.691-0.438c9.418-0.91,16.584,4.993,17.482,14.294c0.915,9.478-4.992,16.584-14.528,17.505
	C96.856,62.818,89.696,56.974,88.781,47.497"/>
<path fill="#C11E54" d="M104.458,62.635c-4.043,0-7.643-1.207-10.505-3.539c-3.338-2.721-5.348-6.71-5.814-11.536
	c-0.834-8.64,4.198-15.735,12.523-17.658c0.97-0.217,1.876-0.365,2.774-0.451c9.771-0.941,17.249,5.172,18.187,14.873
	c0.944,9.771-5.27,17.259-15.108,18.21C105.817,62.601,105.13,62.635,104.458,62.635 M105.369,30.646
	c-0.592,0-1.196,0.028-1.809,0.089c-0.845,0.081-1.699,0.22-2.613,0.425c-7.78,1.797-12.306,8.187-11.524,16.276
	c0.433,4.476,2.281,8.162,5.346,10.66c3.069,2.502,7.093,3.591,11.621,3.153c9.228-0.892,14.834-7.644,13.949-16.802
	C119.533,36.11,113.485,30.646,105.369,30.646 M105.139,52.014c-0.7,0-1.426-0.2-2.302-0.629l-0.014-0.008
	c-1.549-0.807-2.567-2.616-2.794-4.968c-0.22-2.274,0.437-4.203,1.803-5.292c0.85-0.642,1.643-0.976,2.508-1.06
	c0.862-0.082,1.765,0.114,2.613,0.569c1.277,0.661,2.177,1.922,2.596,3.643c0.104,0.429,0.208,0.86,0.253,1.314
	c0.211,2.187-0.504,4.217-1.864,5.3c-0.795,0.648-1.643,1.035-2.443,1.111C105.375,52.008,105.257,52.014,105.139,52.014
	 M103.413,50.229c0.804,0.393,1.386,0.537,1.958,0.482c0.539-0.052,1.163-0.348,1.759-0.834c1.028-0.817,1.559-2.414,1.389-4.17
	c-0.035-0.362-0.124-0.732-0.22-1.124c-0.335-1.377-0.988-2.32-1.945-2.815c-0.623-0.334-1.29-0.483-1.889-0.427
	c-0.627,0.061-1.194,0.306-1.841,0.795c-0.99,0.789-1.484,2.344-1.31,4.148C101.498,48.19,102.263,49.626,103.413,50.229"/>
<path fill="#E31254" d="M117.137,61.792c-0.001-1.958,1.591-3.546,3.551-3.543c1.953,0.002,3.538,1.59,3.537,3.546
	c-0.001,1.958-1.59,3.542-3.552,3.54C118.723,65.334,117.137,63.746,117.137,61.792 M120.681,64.616
	c1.562-0.002,2.823-1.263,2.823-2.824c0-1.562-1.264-2.819-2.815-2.822c-1.566-0.003-2.833,1.263-2.831,2.823
	C117.859,63.352,119.123,64.616,120.681,64.616"/>
<path fill="#E31254" d="M121.258,61.829c0.024,0.008,0.045,0.014,0.065,0.021c0.134,0.05,0.239,0.136,0.328,0.245
	c0.09,0.11,0.158,0.233,0.222,0.36c0.164,0.331,0.328,0.661,0.492,0.992c0.003,0.005,0.005,0.011,0.009,0.018h-0.013
	c-0.314,0-0.621,0-0.93,0.001c-0.015,0-0.021-0.005-0.027-0.018c-0.143-0.29-0.285-0.581-0.429-0.871
	c-0.045-0.091-0.097-0.179-0.165-0.257c-0.083-0.098-0.188-0.151-0.313-0.168c-0.054-0.007-0.109-0.008-0.164-0.01
	c-0.071-0.002-0.142,0-0.215,0v1.321h-0.902v-3.496c0.005-0.001,0.011-0.001,0.017-0.001c0.479,0,0.956-0.001,1.436,0.001
	c0.203,0.001,0.405,0.021,0.601,0.077c0.133,0.037,0.256,0.092,0.363,0.176c0.136,0.106,0.218,0.246,0.26,0.411
	c0.032,0.128,0.039,0.258,0.031,0.391c-0.007,0.116-0.03,0.229-0.078,0.338c-0.058,0.131-0.149,0.233-0.266,0.316
	c-0.09,0.064-0.19,0.11-0.296,0.144C121.277,61.823,121.269,61.826,121.258,61.829 M120.119,61.521h0.012
	c0.127,0,0.253,0.001,0.38,0c0.084-0.001,0.168-0.01,0.249-0.034c0.122-0.037,0.208-0.112,0.243-0.237
	c0.034-0.12,0.035-0.242,0.001-0.363c-0.033-0.111-0.104-0.188-0.217-0.226c-0.086-0.028-0.175-0.038-0.266-0.039
	c-0.128-0.001-0.257,0-0.385,0h-0.012C120.119,60.922,120.119,61.221,120.119,61.521"/>
</svg>
