<?xml version="1.0" encoding="utf-8"?>
<!-- Generator: Adobe Illustrator 15.1.0, SVG Export Plug-In  -->
<!DOCTYPE svg PUBLIC "-//W3C//DTD SVG 1.1//EN" "http://www.w3.org/Graphics/SVG/1.1/DTD/svg11.dtd" [
	<!ENTITY ns_flows "http://ns.adobe.com/Flows/1.0/">
]>
<svg version="1.1"
	 xmlns="http://www.w3.org/2000/svg" xmlns:xlink="http://www.w3.org/1999/xlink" xmlns:a="http://ns.adobe.com/AdobeSVGViewerExtensions/3.0/"
	 x="0px" y="0px" width="377px" height="360px" viewBox="-3.487 -1.201 377 360"
	 overflow="visible" enable-background="new -3.487 -1.201 377 360" xml:space="preserve">
<defs>
</defs>
<path fill-rule="evenodd" clip-rule="evenodd" fill="#DC2152" d="M107.469,186.704c-32.74,21.586-63.14,17.915-95.917,3.264
	c-5.906-2.45-8.74-7.397-8.74-7.397s-7.912-14.487,2.804-24.044c18.011-17.376,64.897,27.897,78.163,11.239"/>
<circle fill-rule="evenodd" clip-rule="evenodd" fill="#FFFFFF" cx="273.477" cy="35.073" r="23.699"/>
<circle fill-rule="evenodd" clip-rule="evenodd" fill="#FFFFFF" cx="88.178" cy="33.071" r="23.698"/>
<path fill-rule="evenodd" clip-rule="evenodd" fill="#DC2152" d="M262.513,256.405c-6.756,22.577-15.867,42.8-24,64
	c21.977,1.202,41.803,6.163,60-3c8.683-4.372,11.971-15.943,22-16c7.68-0.043,13.5,8.167,15,14c1.666,4.666,0,8,0,8
	c-7.256,21.745-28.388,29.612-54,33c-2.667,0-5.333,0-8,0c-21.845-1.255-39.855-8.17-65-10c-62.267-4.532-129.5,22.299-163-3.701
	c-7.253-7.254-17.477-17.051-15-32.299c1.321-8.132,10.399-16.93,18-17c17.173-0.159,27.409,23.161,47,29
	c9.198,2.741,21.307,1.822,32-3c-10.831-19.835-21.021-40.312-29-63l-9-33c-13.129-51.457-2.969-114.677,20-148
	c-2.585-4.415-6.22-7.78-9-12c-31.795,11.172-52.669-20.069-43-44c15.25-37.745,78.127-15.944,61,27c3.754,2.912,6.881,6.453,11,9
	c24.041-23.923,80.198-20.35,105,0c1.356-2.977,4.515-4.152,7-6c-4.038-25.083,7.132-47.624,33-47c41.265,0.995,40.916,63.871,1,66
	c-7.173,0.383-9.388-2.46-16-2c-2.474,2.526-3.934,6.066-7,8c27.222,33.296,31.519,108.776,16,159L262.513,256.405z M94.513,53.405
	c21.913-5.216,17.093-46.941-12-40C54.123,20.179,70.033,59.233,94.513,53.405z M258.513,50.405c13.561,13.561,36,3.999,36-15
	c0-14.416-10.778-22.583-25-20C251.782,18.625,247.422,39.314,258.513,50.405z"/>
<path fill-rule="evenodd" clip-rule="evenodd" d="M94.513,24.405c11.175,9.736-5.264,26.175-15,15
	C74.507,28.423,83.53,19.4,94.513,24.405z"/>
<path fill-rule="evenodd" clip-rule="evenodd" d="M265.513,42.405c-5.979-8.404,1.513-20.161,12-17
	C290.894,29.439,280.893,55.521,265.513,42.405z"/>
<path fill-rule="evenodd" clip-rule="evenodd" fill="#D75A64" d="M151.497,349.022c0,0-32.25-70.5,29.25-70.5
	s33.75,68.25,33.75,68.25S176.747,343.022,151.497,349.022z"/>
<ellipse fill-rule="evenodd" clip-rule="evenodd" fill="#D75A64" cx="9.536" cy="173.96" rx="3.982" ry="4.75"/>
<circle fill-rule="evenodd" clip-rule="evenodd" fill="#D75A64" cx="249.249" cy="186.273" r="2.833"/>
<circle fill-rule="evenodd" clip-rule="evenodd" fill="#D75A64" cx="259.997" cy="178.273" r="2.834"/>
<circle fill-rule="evenodd" clip-rule="evenodd" fill="#D75A64" cx="98.484" cy="176.896" r="2.571"/>
<circle fill-rule="evenodd" clip-rule="evenodd" fill="#D75A64" cx="113.997" cy="176.896" r="2.571"/>
<path fill-rule="evenodd" clip-rule="evenodd" fill="#D75A64" d="M113.997,191.025c0,3.42-2.775,6.194-6.196,6.194
	c-3.422,0-6.196-2.774-6.196-6.194c0-3.425,2.774-6.199,6.196-6.199C111.222,184.826,113.997,187.601,113.997,191.025z"/>
<path fill-rule="evenodd" clip-rule="evenodd" fill="#D75A64" d="M250.776,169.963c0,2.408-1.953,4.36-4.361,4.36
	c-2.409,0-4.363-1.952-4.363-4.36c0-2.411,1.954-4.365,4.363-4.365C248.823,165.598,250.776,167.552,250.776,169.963z"/>
<path fill-rule="evenodd" clip-rule="evenodd" fill="#D75A64" d="M51.572,318.433c0,2.892-2.346,5.235-5.237,5.235
	c-2.892,0-5.237-2.344-5.237-5.235c0-2.895,2.345-5.24,5.237-5.24C49.227,313.192,51.572,315.538,51.572,318.433z"/>
<circle fill-rule="evenodd" clip-rule="evenodd" fill="#D75A64" cx="56.285" cy="308.369" r="2.55"/>
<circle fill-rule="evenodd" clip-rule="evenodd" fill="#D75A64" cx="43.647" cy="303.269" r="2.55"/>
<circle fill-rule="evenodd" clip-rule="evenodd" fill="#D75A64" cx="36.348" cy="313.193" r="2.55"/>
<circle fill-rule="evenodd" clip-rule="evenodd" fill="#D75A64" cx="46.541" cy="332.967" r="3.243"/>
<circle fill-rule="evenodd" clip-rule="evenodd" fill="#D75A64" cx="312.498" cy="319.322" r="3.243"/>
<circle fill-rule="evenodd" clip-rule="evenodd" fill="#D75A64" cx="322.74" cy="311.275" r="3.243"/>
<circle fill-rule="evenodd" clip-rule="evenodd" fill="#D75A64" cx="319.122" cy="334.748" r="2.868"/>
<circle fill-rule="evenodd" clip-rule="evenodd" fill="#D75A64" cx="324.49" cy="324.317" r="4.618"/>
<ellipse fill-rule="evenodd" clip-rule="evenodd" fill="#D75A64" cx="16.348" cy="164.585" rx="2.83" ry="3.375"/>
<ellipse fill-rule="evenodd" clip-rule="evenodd" fill="#D75A64" cx="24.522" cy="164.96" rx="2.515" ry="3"/>
<ellipse fill-rule="evenodd" clip-rule="evenodd" fill="#D75A64" cx="20.121" cy="174.96" rx="3.144" ry="3.75"/>
<path fill-rule="evenodd" clip-rule="evenodd" fill="#DC2152" d="M274.013,171.405c10.84,2.925,31.853,3.476,42.485-1.667
	c10.108-4.891,16.847-16.099,25.976-20.742c16.139-8.212,34.805,12.442,23.991,28.309c-8.752,12.84-31.147,19.056-45.159,21.74
	c-17.594,3.373-35.047,1.258-55.293-8.14"/>
<circle fill-rule="evenodd" clip-rule="evenodd" fill="#D75A64" cx="355.595" cy="167.618" r="4.75"/>
<circle fill-rule="evenodd" clip-rule="evenodd" fill="#D75A64" cx="346.741" cy="158.264" r="4.104"/>
<circle fill-rule="evenodd" clip-rule="evenodd" fill="#D75A64" cx="342.638" cy="168.244" r="3.125"/>
<circle fill-rule="evenodd" clip-rule="evenodd" fill="#D75A64" cx="348.596" cy="174.203" r="2.833"/>
<path fill-rule="evenodd" clip-rule="evenodd" fill="#FFFFFF" d="M154.472,77.762c-0.644,2.701-1.87,5.202-0.224,9.101
	s9.043,1.167,9.974-2.398c-1.642,10.884,11.573,7.652,11.577,0.609c-0.327,3.374,0.819,5.274,1.828,7.312
	c1.422,1.422,3.754,1.926,6.094,0.609s2.135-5.177,3.046-7.921c0.503,4.821,4.933,9.262,9.75,6.093
	c1.213-1.428,1.403-3.877,1.219-6.703c1.479,2.535,6.5,5.179,9.14,3.047c2.641-2.133,1.687-9.7-1.219-10.968
	C195.316,88.243,167.075,85.26,154.472,77.762z"/>
<path d="M145.05,71.135c2.794,1.837,5.68,3.48,8.641,4.947c2.95,1.484,5.982,2.771,9.063,3.874
	c6.169,2.167,12.601,3.508,19.051,3.519c6.406,0.033,12.763-1.622,18.659-4.369c2.944-1.387,5.799-3.017,8.521-4.874
	c2.735-1.84,5.351-3.885,7.816-6.143c-1.968,2.719-4.365,5.112-6.908,7.332c-2.574,2.187-5.356,4.162-8.35,5.803
	c-5.944,3.321-12.794,5.333-19.746,5.296c-6.896-0.021-13.694-1.651-19.91-4.36c-3.121-1.336-6.1-2.964-8.935-4.787
	C150.142,75.515,147.428,73.501,145.05,71.135z"/>
</svg>
