<svg xmlns="http://www.w3.org/2000/svg" viewBox="0 0 175.62 604.94"><defs><style>.cls-1{isolation:isolate;}.cls-2{fill:#f3aa72;}.cls-3{fill:#d1d1d1;}.cls-3,.cls-8{mix-blend-mode:multiply;}.cls-4{fill:#e8e8e8;}.cls-5{fill:#fff;}.cls-6{fill:#3a3027;}.cls-7{fill:#163231;}.cls-11,.cls-8{fill:none;}.cls-8{stroke:#bababa;stroke-miterlimit:10;stroke-width:0.92px;}.cls-9{fill:#2f1300;}.cls-10{fill:#2e2e2d;}.cls-11{stroke:#2f1300;stroke-linecap:round;stroke-linejoin:round;stroke-width:1.78px;}.cls-12{fill:#161615;}.cls-13{fill:#683c19;}</style></defs><title>Asset 3</title><g class="cls-1"><g id="Layer_2" data-name="Layer 2"><g id="Dave"><path class="cls-2" d="M74.47,166.95v25.56a12.49,12.49,0,1,0,25,0V166.95Z"/><path class="cls-3" d="M87.15,181a54.43,54.43,0,0,1-12.69-1.53v6.25a53.41,53.41,0,0,0,25,.09v-6.25A54,54,0,0,1,87.15,181Z"/><path class="cls-4" d="M144.69,361l.16-132.69c0-16.43-15.55-22.54-15.55-22.54L100,193.17s-5.55,5.47-12.79,5.47c-7,0-12.37-5.47-12.37-5.47L45.18,205.78s-15.55,6.11-15.55,22.54L29.8,361Z"/><path class="cls-5" d="M87,198.56l7.1,7,11.26-9.94L99.74,193S93,198.39,87,198.56Z"/><path class="cls-5" d="M87,198.56l-7.1,7L68.6,195.64,74.19,193S80.89,198.39,87,198.56Z"/><path class="cls-6" d="M160.86,39.62c.23-15.81-26.79-23.93-26.79-23.93,6.76-1.2,14.19,3.9,14.19,3.9C134.75,3.84,116.55,1.6,98,.69,80.64-.17,69.26,5.27,69.26,5.27,69,.69,59.41,0,59.41,0c4.35,6.87-4.58,10.08-4.58,10.08C24.15,13.06,20,41.45,20,41.45,4.91,39.46,1.09,65.27,1.09,90.61c0,19.43,7.66,34.09,17.68,36.46C11.89,113,7.92,97.83,7.92,84c0-41.23,35.34-74.65,78.93-74.65S165.78,42.82,165.78,84c0,13.79-4,29-10.87,43.05h0c8-6.26,17.3-31.45,17.3-61.37C172.24,47.17,160.86,39.62,160.86,39.62Z"/><path class="cls-2" d="M165.78,84c0,41.23-35.33,94.81-78.93,94.81S7.92,125.28,7.92,84,43.26,9.39,86.86,9.39,165.78,42.82,165.78,84Z"/><path class="cls-6" d="M18.73,127.1s2.72-3.82-.38-18.47c-3.21-15.12,16.48-27.86,18-43.36.79-7.94-5-15.11-15.3-23.48,0,0-14.62,10.81-14.93,37.06C6.13,78.85,4,117.29,18.73,127.1Z"/><path class="cls-6" d="M154.91,127.1s-5.06-3.82-1.94-18.47c3.21-15.12-4.2-28.66-5.73-44.16-.78-7.93-7.26-14.3,3-22.67,0,0,16.48,10.84,16.78,37.1C167,78.89,168.76,111.87,154.91,127.1Z"/><path class="cls-7" d="M125.29,107.86a6.56,6.56,0,1,1-6.56-6.57A6.56,6.56,0,0,1,125.29,107.86Z"/><path class="cls-5" d="M123,105.69a2.71,2.71,0,1,1-2.71-2.71A2.71,2.71,0,0,1,123,105.69Z"/><path class="cls-7" d="M61.17,107.86a6.56,6.56,0,1,1-6.57-6.57A6.57,6.57,0,0,1,61.17,107.86Z"/><circle class="cls-5" cx="56.17" cy="105.69" r="2.71"/><polyline class="cls-8" points="88.76 94.13 83.12 129.16 90.21 129.16"/><path class="cls-9" d="M111.4,90.24A9.51,9.51,0,0,1,116.71,86c2.21-.83,4.66-.48,6.85,0a20.71,20.71,0,0,1,11,6.79l-.24.28c-3.47-2.29-7.3-4-11.14-4.16-1.93-.1-3.72.48-5.56.66s-3.74.59-6,1Z"/><path class="cls-9" d="M62.15,90.52c-2.22-.4-4.1-.76-6-1s-3.63-.76-5.56-.66C46.8,89,43,90.75,39.49,93l-.24-.28a20.7,20.7,0,0,1,11-6.79c2.2-.48,4.65-.82,6.86,0a9.51,9.51,0,0,1,5.31,4.26Z"/><path class="cls-10" d="M146,361l.16-132.69c0-16.43-15.55-22.54-15.55-22.54L103.7,194.22V361Z"/><path class="cls-10" d="M71.74,361V194.38L44.88,205.78s-15.54,6.11-15.54,22.54L29.49,361Z"/><path class="cls-6" d="M91.89,6.94c-7.37,0-55.07,1.39-75.69,39.92L36,67.64s2.31-21.75,15.8-22C65,45.3,61.14,55,90.89,55.41v0h2v0C122.63,55,118.8,45.3,132,45.59c13.49.3,15.88,23.57,15.88,23.57l19.7-22.3C146.95,8.33,99.26,6.93,91.89,6.94Z"/><path class="cls-11" d="M74.35,153.63s12.68,14,27.4,0"/><path class="cls-10" d="M31.74,354.58v39.81c0,7.32,5.18,13.25,11.59,13.25h87.84c6.4,0,11.58-5.93,11.58-13.25V354.58Z"/><polygon class="cls-10" points="132.24 586.14 142.81 394.99 84.88 394.99 95.46 586.14 132.24 586.14"/><polygon class="cls-10" points="79.04 586.14 89.61 394.99 31.68 394.99 42.25 586.14 79.04 586.14"/><path class="cls-12" d="M151.4,604.94H95.46v-18.8H143c10,0,8.43,9.4,8.43,9.4Z"/><path class="cls-12" d="M78.51,604.94H22.57v-9.4s-.89-9.4,9.4-9.4H78.51Z"/><polygon class="cls-2" points="168.04 357.92 151.27 358.57 151.6 366.74 168.36 366.08 168.04 357.92"/><path class="cls-2" d="M173.82,397.44c-1.32.37-1.84-.4-2.2-1.72l-1.44-8.11v0s-1.06-1.38-1.92-1.3c-.65.06-1.1,1-1.07,1.4l1.94,17a2.73,2.73,0,0,1-2.41,3,2.69,2.69,0,0,1-3-2.3l-2.27-17.82c-.1-.52-.37-1.34-.94-1.32-.8,0-.95.91-1,1.37l.55,20.45a2.65,2.65,0,0,1-5.31.15l-.58-19.41c0-.38-.13.95-.51.95h-.22c-.38,0-.5-1.15-.53-.87l-1.28,18.36c-.09,1.46-1.36,2.11-2.82,2a2.87,2.87,0,0,1-2.46-3l1.26-21.74c-.09-1-.58-3.69-3.37-2,0,0-.06,0-.08,0-1.12.9-2.22,1.79-2.92,2.37-4.31,3.61-6.41,1.35-7.74-.35,0,0,2.79-2.73,4.13-4,.68-.65,1.77-1.65,3-2.72.74-.81,1.73-1.85,3.06-3.3,4.14-5.37.74-10.51,9.7-10.62l14.19-.16c2.92,0,3.49,3,3.68,4.55.74,6.4,1.62,15.79,1.77,17.39l2.46,8.76A2.45,2.45,0,0,1,173.82,397.44Z"/><polygon class="cls-2" points="7.58 357.92 24.35 358.57 24.02 366.74 7.26 366.08 7.58 357.92"/><path class="cls-2" d="M1.8,397.44c1.32.37,1.75-.4,2.12-1.72l1.36-8.11v0s1.15-1.38,2-1.3a1.5,1.5,0,0,1,1.1,1.4l-1.9,17a2.73,2.73,0,0,0,2.42,3,2.7,2.7,0,0,0,3-2.3l2.27-17.82c.1-.52.36-1.34.93-1.32.8,0,1,.91,1,1.37l-.55,20.45a2.65,2.65,0,1,0,5.3.15l.58-19.41c0-.38.13.95.52.95h.2c.39,0,.51-1.15.54-.87l1.27,18.36c.1,1.46,1.37,2.11,2.82,2a2.87,2.87,0,0,0,2.47-3L28,384.48c.09-1,.59-3.69,3.37-2,0,0,.06,0,.08,0,1.12.9,2.22,1.79,2.91,2.37,4.32,3.61,6.41,1.35,7.74-.35,0,0-2.79-2.73-4.13-4-.67-.65-1.77-1.65-3-2.72-.74-.81-1.73-1.85-3.06-3.3-4.15-5.37-.75-10.51-9.71-10.62L8,363.72c-2.92,0-3.5,3-3.68,4.55-.74,6.4-1.63,15.79-1.77,17.39L.09,394.42A2.44,2.44,0,0,0,1.8,397.44Z"/><polygon class="cls-13" points="168.28 361.02 168.17 357.92 151.4 358.57 151.5 361.02 168.28 361.02"/><path class="cls-10" d="M170.85,360.95h-21.4V252.17c0-15.74-28.81-27.77-38.9-30.75l6-20.54c5.57,1.62,54.29,16.84,54.29,51.29Z"/><polygon class="cls-13" points="24.24 361.02 24.34 358.57 7.56 357.92 7.45 361.02 24.24 361.02"/><path class="cls-10" d="M4.88,360.95h21.4V252.17c0-15.74,28.81-27.77,38.9-30.75l-6-20.54c-5.56,1.62-54.29,16.84-54.29,51.29Z"/></g></g></g></svg>