<svg xmlns="http://www.w3.org/2000/svg" viewBox="0 0 129.91 110.93"><title>Asset 1</title><g id="Layer_2" data-name="Layer 2"><g id="Contact_Us_2" data-name="Contact Us 2"><path d="M125.51,68.91a4.3,4.3,0,0,0-3.23-2.32c.31-.18,9.7-5.75,7.21-16-.94-3.83-3.86-6.94-8.42-8.57a15.72,15.72,0,0,0,4.39-10.55c0-10.08-10.3-18.25-24.76-14.8.37-4.36.79-10.48-6.39-14.4-11.74-6.4-19.16,1.92-20.41,7.92,0-5-5.77-10-15.31-8.78-5.33.66-12.17,5.67-10.34,12.93-3.71-8.47-13.88-5.81-14,1.37-11.31-5.28-22.6.59-26.75,10.74-2.83,6.93.22,17.72,5.21,21.41C7.25,48.31,1.33,50.63.21,57.05-1,64.28,3.41,70.91,8.41,71.55,6.07,78.88,11.24,84,17.49,83.86a7.61,7.61,0,0,0-1.1,2.71c-.88,4.61,2.63,9.15,7.83,10.14A10.34,10.34,0,0,0,30.35,96c3.51,7.25,11.26,13,20.95,14.5,10.17,1.6,19.75-1.87,25.21-8.27A18.23,18.23,0,0,0,85,105.9c8.77,1.38,16.81-3.45,18-10.79a11.14,11.14,0,0,0,.1-2.74,18.48,18.48,0,0,0,6.87,2.53c8.77,1.38,16.81-3.45,18-10.79.53-3.39-1.14-8.36-4.67-9.81A4,4,0,0,0,125.51,68.91Z" style="fill:#fff"/></g></g></svg>