<?xml version="1.0" encoding="utf-8"?>
<!-- Generator: Adobe Illustrator 15.0.0, SVG Export Plug-In  -->
<!DOCTYPE svg PUBLIC "-//W3C//DTD SVG 1.1//EN" "http://www.w3.org/Graphics/SVG/1.1/DTD/svg11.dtd" [
	<!ENTITY ns_flows "http://ns.adobe.com/Flows/1.0/">
]>
<svg version="1.1"
	 xmlns="http://www.w3.org/2000/svg" xmlns:xlink="http://www.w3.org/1999/xlink" xmlns:a="http://ns.adobe.com/AdobeSVGViewerExtensions/3.0/"
	 x="0px" y="0px" width="326px" height="346px" viewBox="-10.878 -5.354 326 346"
	 overflow="visible" enable-background="new -10.878 -5.354 326 346" xml:space="preserve">
<defs>
</defs>
<path fill="#DCD5CF" d="M219.919,306.17c-4.456-6.076-18.947-6.823-21.597-8.314c-2.65-1.494,1.414-1.642,2.65-4.328
	c1.238-2.687-21.453-9.954-48.127-9.954c-15.965,0-30.117,1.875-38.911,4.764c-21.805,1.127-44.689,6.407-38.158,11.432
	c0.766,0.588,10.04,5.186-1.787,6.779c-11.826,1.595-23.649,5.777-23.649,10.054c0,6.458,21.624,11.69,48.3,11.69
	c11.929,0,20.999-3.629,31.272-2.782c10.274,0.848,21.812,3.968,36.257,3.968c26.675,0,48.299-5.233,48.299-11.689
	c0-1.718-1.528-3.346-4.273-4.815C215.463,311.733,221.463,308.276,219.919,306.17z"/>
<path fill="#88AC2E" d="M122.513,289.525c0,0-11.57-13.809-18.035-14.059c6.943,6.018,7.899,15.797,7.899,15.797
	s-19.394-9.779-32.562-0.251c12.211,0.502,22.028,6.268,22.028,6.268s-22.748-0.752-32.803,18.807
	c21.07-13.038,35.676-9.779,35.676-9.779s-5.268,3.511-8.141,18.053c14.125-15.044,21.788-12.035,21.788-12.035
	s-0.479,7.522-0.718,11.534c4.07-6.771,12.211-9.277,12.211-9.277s0.239,12.285,2.634,17.3c1.915-12.284,8.38-18.555,8.38-18.555
	s6.703,4.765,8.858,16.049c2.156-11.284,0.719-16.55,0.719-16.55s18.676-1.003,31.127,18.556c-3.831-14.794-8.86-20.812-8.86-20.812
	s13.409,1.755,18.678,7.272c-0.24-6.521-9.817-14.32-9.817-14.32s11.253-3.736,23.702,2.534
	c-11.971-14.793-25.269-11.813-25.269-11.813s2.763-6.49,14.974-9.499c-18.437-6.77-29.929,7.773-29.929,7.773L122.513,289.525z"/>
<path fill="#846227" d="M120.62,4.009c8.793,22.029,0.382,286.896-0.295,293.045c7.44,11.271,41.268,7.171,43.975,1.537
	c2.704-5.636-8.663-281.261-6.632-294.582C153.608,2.473,136.18-4.188,120.62,4.009z"/>
<polygon opacity="0.44" fill="#926E24" points="135.705,119.45 134.279,200.102 134.878,226.465 136.669,261.766 137.266,226.312 
	137.564,199.041 "/>
<path opacity="0.44" fill="#926E24" d="M146.881,169.44c-2.247,0.037-1.424,28.375-1.424,28.375l0.597,9.276
	c0,0,0.642,11.752,1.791,12.42c1.15,0.67,0.597-12.474,0.597-12.474l0.299-9.594C148.74,197.444,149.128,169.403,146.881,169.44z"/>
<polygon opacity="0.44" fill="#926E24" points="145.829,65.765 144.54,118.823 145.081,136.167 146.704,159.392 147.244,136.066 
	147.516,118.126 "/>
<path opacity="0.44" fill="#926E24" d="M157.668,4.009c-4.06-1.536-21.488-8.196-37.048,0c8.793,22.029,0.382,286.896-0.295,293.045
	c7.44,11.271,41.268,7.171,43.975,1.537C167.004,292.955,155.637,17.33,157.668,4.009z M128.627,5.826
	c0.896-0.776,1.589-1.206,4.09-1.576l4.064,22.641l1.092-22.161c2.438-0.206,4.916-0.517,7.058-0.381l1.633,15.094l2.41-13.889
	c0.487,0.189,2.771,1.387,2.84,1.648c4.479,66.13,3.808,27.39,2.912,93.389h-24.352C130.858,83.641,125.576,8.467,128.627,5.826z
	 M149.348,284.8c-0.298,0.113-0.605,0.21-0.918,0.299l-0.997-15.14l-2.673-38.787v39.241l-2.314,15.216
	c-1.859-0.111-3.686-0.428-5.281-0.829c-2.438-0.461-3.656-4.612-4.266-5.075c-2.461-20.498-0.373-149.04-0.048-169.542
	c8.639,1.162,12.848,0.973,20.834,0c-0.341,20.596,0.019,149.37-0.682,170.005C153.003,282.031,151.176,284.339,149.348,284.8z"/>
<path opacity="0.44" fill="#926E24" d="M126.667,259.677c-2.474-55.911,2.237-111.44,2.849-166.856l-3.802,0.061
	c-0.525,85.083-4.946,200.144-5.389,204.173c1.194,1.809,3.07,3.22,5.386,4.294C126.492,287.431,127.08,273.723,126.667,259.677z"/>
<path opacity="0.44" fill="#926E24" d="M159.348,93.744l-2.606-0.229c-1.347,69.392,0.555,139.415,0.576,208.802
	c3.675-1.002,6.304-2.315,6.982-3.726C166.042,294.959,161.941,179.173,159.348,93.744z"/>
<path opacity="0.44" fill="#926E24" d="M125.293,2.556c-1.046,0.423-3.626,0.902-4.673,1.453c1.928,4.832,2.954,21.341,3.377,44.238
	c0.139-0.3,1.783-0.601,1.852-0.9C130.478,32.386,125.676,17.485,125.293,2.556z"/>
<path opacity="0.44" fill="#926E24" d="M157.668,4.009c-0.604-0.229-1.474-0.571-2.561-0.961
	c-0.384,16.175-2.976,31.519,1.814,48.339c0.188,0.663,0.742,1.213,1.261,1.732C157.476,26.243,157.171,7.269,157.668,4.009z"/>
<polyline opacity="0.85" fill="#926E24" points="142.293,299.198 145.788,276.928 147.021,299.502 "/>
<polygon opacity="0.85" fill="#926E24" points="124.67,297.836 126.519,272.203 126.519,250.717 128.577,272.203 129.399,297.836 
	"/>
<path opacity="0.53" fill="#926E24" d="M136.404,0.074c-0.888,0.055-1.788,0.137-2.699,0.259l1.996,12.432L136.404,0.074z"/>
<path opacity="0.53" fill="#926E24" d="M148.42,1.106c-0.661-0.146-1.346-0.284-2.053-0.41l0.498,8.412L148.42,1.106z"/>
<linearGradient id="SVGID_1_" gradientUnits="userSpaceOnUse" x1="139.0142" y1="305.4697" x2="139.0142" y2="257.8428">
	<stop  offset="0" style="stop-color:#88AC2E"/>
	<stop  offset="1" style="stop-color:#BAC825"/>
</linearGradient>
<path fill="url(#SVGID_1_)" d="M164.658,293.786c0.874-5.183,4.375-14.163,8.435-20.494c-10.362,1.367-19.415,24.312-19.415,24.312
	s-0.794-16.093,0-22.435c-5.217,3.605-8.164,20.519-8.164,20.519s-0.99-27.222-12.034-37.845c5.68,11.796,2.857,40.95,2.857,40.95
	s-9.193-28.91-25.524-34.841c8.101,9.621,10.908,33.11,10.908,33.11S114.6,283.192,102.138,279
	c11.839,11.357,13.714,26.47,13.714,26.47l49.529-0.894c0,0,3.724-10.535,10.51-17.649
	C172.417,287.202,167.236,291.949,164.658,293.786z"/>
<path opacity="0.25" fill="#88AC2E" d="M110,299.126c-23.366-1.907-39.375,15.057-39.375,15.057S84.248,294.016,110,299.126z"/>
<path opacity="0.25" fill="#88AC2E" d="M109.592,291.904c-15.534-5.518-28.75-1.361-28.75-1.361S94.809,283.32,109.592,291.904z"/>
<path opacity="0.25" fill="#88AC2E" d="M116.812,305.121c-11.444,1.295-19.552,17.916-19.552,17.916S104.96,300.216,116.812,305.121
	z"/>
<path opacity="0.25" fill="#88AC2E" d="M127.645,307.027c-5.042,0.682-9.537,15.737-9.537,15.737S119.266,305.666,127.645,307.027z"
	/>
<path opacity="0.25" fill="#88AC2E" d="M160.82,306.211c13.216,7.084,19.553,22.209,19.553,22.209S174.854,307.368,160.82,306.211z"
	/>
<path opacity="0.25" fill="#88AC2E" d="M189.613,314.393c-5.949-9.517-20.422-10.903-20.422-10.903S181.683,300.317,189.613,314.393
	z"/>
<path opacity="0.25" fill="#88AC2E" d="M201.396,302.791c-14.059-10.056-30.753-3.417-30.753-3.417S186.752,288.927,201.396,302.791
	z"/>
<path opacity="0.25" fill="#88AC2E" d="M136.137,307.813c-6.105,1.545-3.824,21.92-3.824,21.92S127.164,306.783,136.137,307.813z"/>
<path opacity="0.25" fill="#88AC2E" d="M141.507,305.974c8.239,2.723,8.239,21.26,8.239,21.26S151.879,306.857,141.507,305.974z"/>
<polygon fill="#8A5E1B" points="245.793,111.622 245.049,78.931 237.975,78.188 243.933,75.959 242.815,40.292 241.326,15.031 
	0,14.255 0.373,38.436 1.532,42.984 24.207,44.754 0.944,46.9 1.489,74.844 2.535,77.87 13.336,78.613 2.234,82.646 0.757,114.8 
	1.804,121.291 0.745,155.831 3.421,165.815 244.083,151.951 244.494,151.542 246.553,111.2 "/>
<polygon fill="#795314" points="303.999,79.228 246.553,111.2 244.494,151.542 301.71,94.396 "/>
<polygon fill="#D0B183" points="0,10.911 0.373,38.436 24.207,41.407 0.745,45.123 1.489,74.844 12.29,75.585 2.234,79.301 
	0.891,114.153 26.87,116.732 0.745,121.281 0.745,155.831 245.793,139.483 303.999,79.228 241.326,11.688 "/>
<linearGradient id="SVGID_2_" gradientUnits="userSpaceOnUse" x1="129.9321" y1="41.9463" x2="129.9321" y2="22.2925">
	<stop  offset="0" style="stop-color:#B39667"/>
	<stop  offset="1" style="stop-color:#D2B384"/>
</linearGradient>
<path fill="url(#SVGID_2_)" d="M205.852,25.911c-11.75-1.875-24.011-1.875-35.761-1.875C113.445,21.304,56.8,23.875,0.154,22.292
	l0.219,16.143l18.285,2.281c66.655-2.092,133.322,7.316,200.476-6.371c13.524-2.681,27.05-2.488,40.576-2.847l-5.756-6.201
	C238.062,26.332,222.096,28.685,205.852,25.911z"/>
<linearGradient id="SVGID_3_" gradientUnits="userSpaceOnUse" x1="126.9771" y1="27.2158" x2="126.9771" y2="10.9111">
	<stop  offset="0" style="stop-color:#B39667"/>
	<stop  offset="1" style="stop-color:#D2B384"/>
</linearGradient>
<path fill="url(#SVGID_3_)" d="M0,10.911l0.154,11.381c56.646,1.583,113.291-0.989,169.937,1.744c11.75,0,24.011,0,35.761,1.875
	c16.244,2.774,32.21,0.42,48.103-0.614l-12.628-13.61L0,10.911z"/>
<linearGradient id="SVGID_4_" gradientUnits="userSpaceOnUse" x1="141.7471" y1="75.4541" x2="141.7471" y2="31.4985">
	<stop  offset="0" style="stop-color:#B39667"/>
	<stop  offset="1" style="stop-color:#D2B384"/>
</linearGradient>
<path fill="url(#SVGID_4_)" d="M159.362,63.399c41.789-11.728,82.16-11.297,123.387-7.071l-23.039-24.83
	c-13.526,0.359-27.052,0.167-40.576,2.847c-67.153,13.687-133.82,4.278-200.476,6.371l5.549,0.691L0.745,45.123l0.744,29.721
	l8.9,0.61c21.968-7.258,42.412-1.226,64.171-6.432C103.168,62.46,130.756,71.833,159.362,63.399z"/>
<linearGradient id="SVGID_5_" gradientUnits="userSpaceOnUse" x1="147.8037" y1="117.9185" x2="147.8037" y2="80.1455">
	<stop  offset="0" style="stop-color:#B39667"/>
	<stop  offset="1" style="stop-color:#D2B384"/>
</linearGradient>
<path fill="url(#SVGID_5_)" d="M229.35,87.764c-39.336-10.307-78.162-9.371-116.986-1.873c-37.067,6.181-73.681,6.54-110.696,8.129
	L0.757,114.8c8.838-0.185,18.157,1.417,26.512,2.138c40.405,3.484,80.91-3.321,121.365-4.807c26.565,0,54.662-11.245,80.716-4.686
	c14.832,3.402,29.526,3.778,44.153,3.353L294.851,88.7C273.154,89.806,251.561,93.585,229.35,87.764z"/>
<linearGradient id="SVGID_6_" gradientUnits="userSpaceOnUse" x1="152.833" y1="94.0205" x2="152.833" y2="53.6118">
	<stop  offset="0" style="stop-color:#B39667"/>
	<stop  offset="1" style="stop-color:#D2B384"/>
</linearGradient>
<path fill="url(#SVGID_6_)" d="M282.749,56.328c-41.227-4.226-81.598-4.656-123.387,7.071c-28.606,8.433-56.194-0.939-84.802,5.623
	c-21.759,5.207-42.203-0.826-64.171,6.432l1.9,0.131L2.234,79.301l-0.567,14.72c37.016-1.589,73.629-1.948,110.696-8.129
	c38.824-7.498,77.65-8.435,116.986,1.873c22.211,5.822,43.805,2.042,65.501,0.937l9.148-9.472L282.749,56.328z"/>
<linearGradient id="SVGID_7_" gradientUnits="userSpaceOnUse" x1="129.6421" y1="155.8311" x2="129.6421" y2="124.5913">
	<stop  offset="0" style="stop-color:#B39667"/>
	<stop  offset="1" style="stop-color:#D2B384"/>
</linearGradient>
<path fill="url(#SVGID_7_)" d="M148.123,127.128c-49.126,6.614-98.252,6.664-147.378,6.583v22.121l245.048-16.348l12.746-13.193
	C221.619,126.491,185.097,121.841,148.123,127.128z"/>
<linearGradient id="SVGID_8_" gradientUnits="userSpaceOnUse" x1="137.124" y1="133.7246" x2="137.124" y2="105.3911">
	<stop  offset="0" style="stop-color:#B39667"/>
	<stop  offset="1" style="stop-color:#D2B384"/>
</linearGradient>
<path fill="url(#SVGID_8_)" d="M229.35,107.445c-26.054-6.559-54.15,4.686-80.716,4.686c-40.455,1.485-81.039,3.269-121.494,4.53
	c-4.565,0.199-17.545,4.305-26.383,4.49L0.745,133.71c49.126,0.081,98.252,0.032,147.378-6.583
	c36.974-5.287,73.496-0.637,110.416-0.838l14.964-15.492C258.876,111.224,244.182,110.847,229.35,107.445z"/>
<path fill="#AB915D" d="M273.664,122.52l4.4-4.383l1.476-13.017l-47.702,3.285c0,0,38.711,3.481,41.665,2.393
	C274.041,110.279,273.664,122.52,273.664,122.52z"/>
<polygon fill="#AB915D" points="291.855,66.159 252.776,68.283 296.595,71.156 "/>
<polygon opacity="0.72" fill="#AB915D" points="253.12,24.424 236.402,26.224 256.152,27.686 "/>
<circle fill="#926E24" cx="141.587" cy="38.039" r="1.556"/>
<circle fill="#926E24" cx="138.836" cy="61.918" r="1.556"/>
<circle fill="#926E24" cx="143.229" cy="86.836" r="1.556"/>
<circle fill="#926E24" cx="141.96" cy="22.549" r="1.556"/>
<path opacity="0.23" fill="#926E24" d="M147.845,22.663c-2.565,0.087-4.004-2.43-5.955-2.344c-1.95,0.087-4.004,2.431-5.853,2.258
	c2.67-0.087,3.596,1.909,5.751,2.085C143.943,24.835,144.662,22.663,147.845,22.663z"/>
<path opacity="0.23" fill="#926E24" d="M147.58,37.659c-2.552,0.286-4.18-2.113-6.118-1.873c-1.938,0.237-3.804,2.733-5.661,2.703
	c2.655-0.292,3.732,1.627,5.896,1.633C143.86,40.127,144.406,37.908,147.58,37.659z"/>
<path opacity="0.23" fill="#926E24" d="M144.496,61.854c-2.552,0.287-4.18-2.112-6.117-1.874c-1.939,0.238-3.806,2.735-5.661,2.706
	c2.655-0.295,3.731,1.624,5.896,1.629C140.775,64.321,141.322,62.101,144.496,61.854z"/>
<path opacity="0.23" fill="#926E24" d="M149.041,87.059c-2.566,0.054-3.971-2.482-5.923-2.421s-4.037,2.379-5.882,2.181
	c2.669-0.053,3.568,1.957,5.722,2.158S145.858,87.018,149.041,87.059z"/>
<path fill-rule="evenodd" clip-rule="evenodd" fill="#FFFFFF" d="M92.109,35.639c-6.311-4.368-17.412-2.765-18.266,5.756
	c-0.523,5.225,2.066,10.219,5.565,11.508c1.86,0.686,4.505,1.226,6.429,0.158c2.294-1.273,1.058-6.536,0.583-9.315
	c2.497-0.207,5.492-0.37,6.298,1.513c1.045,2.442,0.33,9.157-0.714,10.671c-2.209,3.206-6.648,3.514-10.219,3.331
	c-8.872-0.457-15.167-7.258-14.361-17.685c0.601-7.772,6.935-13.143,13.978-13.918C87.909,26.941,92.536,28.604,92.109,35.639z"/>
<path fill-rule="evenodd" clip-rule="evenodd" fill="#FFFFFF" d="M108.266,27.07c9.361-1.347,15.577,4.561,16.584,12.55
	c1.308,10.37-4.669,19.515-15.361,18.86c-4.333-0.266-7.94-2.595-10.128-5.463c-5.541-7.261-2.898-20.168,3.379-24.102
	C104.077,28.078,105.821,27.422,108.266,27.07z M104.333,49.497c1.606,2.78,6.609,4.419,10.053,2.761
	c4.673-2.252,5.354-11.575,2.583-16.303c-1.352-2.307-4.302-4.133-8.208-3.319C102.78,33.883,100.842,43.453,104.333,49.497z"/>
<path fill-rule="evenodd" clip-rule="evenodd" fill="#FFFFFF" d="M174.312,25.21c9.369-1.347,15.55,4.559,16.584,12.55
	c1.012,7.822-2.093,14.08-6.793,16.929c-5.664,3.432-13.707,1.927-17.645-2.209c-7.299-7.667-4.58-26.111,7.516-27.26
	C174.086,25.209,174.203,25.226,174.312,25.21z M170.488,33.433c-2.13,3.072-2.365,10.778,0.07,14.538
	c1.677,2.587,6.702,3.955,9.874,2.426c6.207-2.99,4.86-16.397-0.2-19.098c-1.213-0.647-3.792-0.852-5.424-0.523
	C172.903,31.159,171.335,32.21,170.488,33.433z"/>
<path fill-rule="evenodd" clip-rule="evenodd" fill="#FFFFFF" d="M160.477,26.107c0.957,5.619-3.831,5.806-8.968,5.662
	c-0.17,7.952,0.41,16.613,0.53,24.837c-7.694,2.078-6.404-5.311-6.615-12.831c-0.123-4.378-0.247-8.748-0.329-11.656
	c-2.5-0.428-6.124,0.333-8.625-0.095c-0.423-2.646,0.1-5.097,2.72-5.486C144.528,25.742,155.409,26.444,160.477,26.107z"/>
<path fill-rule="evenodd" clip-rule="evenodd" fill="#FFFFFF" d="M69.62,86.139c-4.451-3.71-17.133-8.055-24.498-3.165
	c-1.614,1.072-3.182,3.308-3.056,5.546c0.417,7.396,15.677,6.769,21.139,9.361c4.347,2.062,8.078,6.03,8.678,11.638
	c1.186,11.071-6.388,19.566-18.034,21.063c-11.194,1.438-23.495-1.827-21.651-16.092c3.514,1.588,9.394,5.686,16.218,5.646
	c5.581-0.033,12.305-1.948,11.647-8.357c-0.78-7.614-15.923-6.134-22.762-9.958c-4.034-2.255-7.41-7.204-7.119-13.289
	c0.542-11.366,10.606-18.663,24.865-18.043C64.003,70.88,70.912,74.233,69.62,86.139z"/>
<path fill-rule="evenodd" clip-rule="evenodd" fill="#FFFFFF" d="M158.069,67.912c17.898-2.574,29.676,8.746,31.514,24.164
	c2.396,20.102-9.21,36.732-29.189,35.509c-12.858-0.788-23.009-10.454-24.765-24.033C133.33,85.78,141.505,70.293,158.069,67.912z
	 M150.802,83.532c-3.766,5.434-4.664,20.209,0.135,27.617c3.22,4.969,12.6,7.577,18.757,4.61c8.746-4.213,10.288-21.658,4.91-30.97
	c-2.283-3.952-8.441-7.927-15.915-6.297C155.054,79.285,152.223,81.482,150.802,83.532z"/>
<path fill-rule="evenodd" clip-rule="evenodd" fill="#FFFFFF" d="M210.446,103.05c-0.005,7.284,0.856,15.386,0.303,22.152
	c-6.976,1.163-11.271-1.413-12.1-7.689c-1.731-13.099,0.065-34.416-1.338-47.496c3.481-1.47,7.323-2.732,11.152-3.204
	c15.699-1.936,28.064,0.921,30.232,12.959C241.794,96.972,228.855,108.288,210.446,103.05z M224.901,91.723
	c2.426-2.771,2.84-10.05-0.05-13.167c-2.672-2.884-10.534-2.414-15.119-0.86c0.147,5.242,0.295,10.484,0.442,15.725
	C215.376,94.29,221.56,95.539,224.901,91.723z"/>
<path fill-rule="evenodd" clip-rule="evenodd" fill="#FFFFFF" d="M79.785,70.758c14.962-4.042,11.52,11.386,12.194,22.46
	c6.868,0.555,15.086-0.318,22.474-0.312c0.552-6.975-0.324-15.299-0.321-22.794c4.518-0.999,9.537-0.805,11.313,2.572
	c1.427,2.712,0.878,8.366,1.022,13.46c0.354,12.583,1.122,30.97,0.844,41.408c-14.787,3.305-11.559-12.448-12.24-24.065
	c-6.868-0.556-15.086,0.317-22.473,0.312c-0.744,7.522,0.798,17.206,0.055,24.729c-15.235,3.705-11.997-15.404-12.385-29.2
	c-0.291-10.309-0.557-19.78-0.777-27.599C79.451,71.275,79.413,70.823,79.785,70.758z"/>
</svg>
